<?xml version="1.0" encoding="UTF-8" standalone="no"?>
<!-- Created with Inkscape (http://www.inkscape.org/) -->

<svg
   xmlns:dc="http://purl.org/dc/elements/1.1/"
   xmlns:cc="http://creativecommons.org/ns#"
   xmlns:rdf="http://www.w3.org/1999/02/22-rdf-syntax-ns#"
   xmlns:svg="http://www.w3.org/2000/svg"
   xmlns="http://www.w3.org/2000/svg"
   xmlns:sodipodi="http://sodipodi.sourceforge.net/DTD/sodipodi-0.dtd"
   xmlns:inkscape="http://www.inkscape.org/namespaces/inkscape"
   id="svg3091"
   version="1.1"
   inkscape:version="0.48.4 r9939"
   width="1665.35"
   height="1052.3637"
   xml:space="preserve"
   sodipodi:docname="box_for_breadboard_v04.svg"><metadata
     id="metadata3097"><rdf:RDF><cc:Work
         rdf:about=""><dc:format>image/svg+xml</dc:format><dc:type
           rdf:resource="http://purl.org/dc/dcmitype/StillImage" /><dc:title></dc:title></cc:Work></rdf:RDF></metadata><defs
     id="defs3095"><inkscape:path-effect
       effect="spiro"
       id="path-effect4665"
       is_visible="true" /><inkscape:path-effect
       effect="spiro"
       id="path-effect4657"
       is_visible="true" /><inkscape:path-effect
       effect="spiro"
       id="path-effect3881"
       is_visible="true" /></defs><sodipodi:namedview
     pagecolor="#ffffff"
     bordercolor="#666666"
     borderopacity="1"
     objecttolerance="10"
     gridtolerance="10"
     guidetolerance="10"
     inkscape:pageopacity="0"
     inkscape:pageshadow="2"
     inkscape:window-width="1600"
     inkscape:window-height="880"
     id="namedview3093"
     showgrid="true"
     inkscape:zoom="5.0915493"
     inkscape:cx="1326"
     inkscape:cy="529"
     inkscape:window-x="-2"
     inkscape:window-y="-3"
     inkscape:window-maximized="1"
     inkscape:current-layer="g3099"><inkscape:grid
       type="xygrid"
       id="grid3832"
       empspacing="10"
       visible="true"
       enabled="true"
       snapvisiblegridlinesonly="true"
       units="mm"
       spacingx="1mm"
       spacingy="1mm" /></sodipodi:namedview><g
     id="g3099"
     inkscape:groupmode="layer"
     inkscape:label="box_for_breadboard_v02"
     transform="matrix(1.25,0,0,-1.25,0,1052.3637)"><g
       id="g3815"
       transform="translate(70.478995,39.524857)"><path
         d="m 286.141,400.067 c 0,-2.254 -0.754,-4.078 -1.68,-4.078 l -14.168,0 c -0.926,0 -1.68,1.824 -1.68,4.078 0,2.254 0.754,4.078 1.68,4.078 l 14.168,0 c 0.926,0 1.68,-1.824 1.68,-4.078 z"
         style="fill:none;stroke:#ff0000;stroke-width:0.0708661;stroke-linecap:butt;stroke-linejoin:miter;stroke-miterlimit:4;stroke-opacity:1;stroke-dasharray:none"
         id="path3103"
         inkscape:connector-curvature="0" /><path
         d="m 280.082,219.442 c 0,-2.25 -0.754,-4.078 -1.68,-4.078 l -14.168,0 c -0.925,0 -1.675,1.828 -1.675,4.078 0,2.254 0.75,4.078 1.675,4.078 l 14.168,0 c 0.926,0 1.68,-1.824 1.68,-4.078 z"
         style="fill:none;stroke:#ff0000;stroke-width:0.0708661;stroke-linecap:butt;stroke-linejoin:miter;stroke-miterlimit:4;stroke-opacity:1;stroke-dasharray:none"
         id="path3105"
         inkscape:connector-curvature="0" /><path
         d="m 392.418,400.067 c 0,-2.254 -0.754,-4.078 -1.68,-4.078 l -14.168,0 c -0.925,0 -1.679,1.824 -1.679,4.078 0,2.254 0.754,4.078 1.679,4.078 l 14.168,0 c 0.926,0 1.68,-1.824 1.68,-4.078 z"
         style="fill:none;stroke:#ff0000;stroke-width:0.0708661;stroke-linecap:butt;stroke-linejoin:miter;stroke-miterlimit:4;stroke-opacity:1;stroke-dasharray:none"
         id="path3107"
         inkscape:connector-curvature="0" /><path
         d="m 386.359,219.442 c 0,-2.25 -0.75,-4.078 -1.679,-4.078 l -14.164,0 c -0.926,0 -1.68,1.828 -1.68,4.078 0,2.254 0.754,4.078 1.68,4.078 l 14.164,0 c 0.929,0 1.679,-1.824 1.679,-4.078 z"
         style="fill:none;stroke:#ff0000;stroke-width:0.0708661;stroke-linecap:butt;stroke-linejoin:miter;stroke-miterlimit:4;stroke-opacity:1;stroke-dasharray:none"
         id="path3109"
         inkscape:connector-curvature="0" /><path
         d="m 551.617,406.121 c 0,-2.25 -0.754,-4.078 -1.683,-4.078 l -14.164,0 c -0.926,0 -1.68,1.828 -1.68,4.078 0,2.254 0.754,4.079 1.68,4.079 l 14.164,0 c 0.929,0.003 1.683,-1.825 1.683,-4.079 z"
         style="fill:none;stroke:#ff0000;stroke-width:0.0708661;stroke-linecap:butt;stroke-linejoin:miter;stroke-miterlimit:4;stroke-opacity:1;stroke-dasharray:none"
         id="path3111"
         inkscape:connector-curvature="0" /><path
         d="m 551.617,219.442 c 0,-2.25 -0.754,-4.078 -1.683,-4.078 l -14.164,0 c -0.926,0 -1.68,1.828 -1.68,4.078 0,2.254 0.754,4.078 1.68,4.078 l 14.164,0 c 0.929,0 1.683,-1.824 1.683,-4.078 z"
         style="fill:none;stroke:#ff0000;stroke-width:0.0708661;stroke-linecap:butt;stroke-linejoin:miter;stroke-miterlimit:4;stroke-opacity:1;stroke-dasharray:none"
         id="path3113"
         inkscape:connector-curvature="0" /><path
         d="m 657.984,406.121 c 0,-2.25 -0.75,-4.078 -1.679,-4.078 l -14.164,0 c -0.926,0 -1.68,1.828 -1.68,4.078 0,2.254 0.754,4.079 1.68,4.079 l 14.164,0 c 0.929,0.003 1.679,-1.825 1.679,-4.079 z"
         style="fill:none;stroke:#ff0000;stroke-width:0.0708661;stroke-linecap:butt;stroke-linejoin:miter;stroke-miterlimit:4;stroke-opacity:1;stroke-dasharray:none"
         id="path3115"
         inkscape:connector-curvature="0" /><path
         d="m 657.984,219.442 c 0,-2.25 -0.75,-4.078 -1.679,-4.078 l -14.164,0 c -0.926,0 -1.68,1.828 -1.68,4.078 0,2.254 0.754,4.078 1.68,4.078 l 14.164,0 c 0.929,0 1.679,-1.824 1.679,-4.078 z"
         style="fill:none;stroke:#ff0000;stroke-width:0.0708661;stroke-linecap:butt;stroke-linejoin:miter;stroke-miterlimit:4;stroke-opacity:1;stroke-dasharray:none"
         id="path3117"
         inkscape:connector-curvature="0" /><path
         d="m 721.562,244.535 9.114,0 0,26.911 -9.114,0 0,26.382 9.114,0 0,26.914 -9.114,0 0,26.379 9.114,0 0,26.914 -9.114,0 0,43.52 -31.222,0 0,9.109 -26.91,0 0,-9.109 -26.383,0 0,9.109 -26.91,0 0,-9.109 -26.383,0 0,9.109 -26.91,0 0,-9.109 -26.383,0 0,9.109 -26.91,0 0,-9.109 -26.383,0 0,9.109 -26.91,0 0,-9.109 -26.383,0 0,9.109 -26.91,0 0,-9.109 -26.379,0 0,9.109 -26.914,0 0,-9.109 -26.383,0 0,9.109 -26.91,0 0,-9.109 -26.383,0 0,9.109 -26.91,0 0,-9.109 -31.219,0 0,-43.52 -9.113,0 0,-26.914 9.113,0 0,-26.379 -9.113,0 0,-26.914 9.113,0 0,-26.382 -9.113,0 0,-26.911 9.113,0 0,-43.519 31.219,0 0,-9.109 26.91,0 0,9.109 26.383,0 0,-9.109 26.91,0 0,9.109 26.383,0 0,-9.109 26.914,0 0,9.109 26.379,0 0,-9.109 26.91,0 0,9.109 26.383,0 0,-9.109 26.91,0 0,9.109 26.383,0 0,-9.109 26.91,0 0,9.109 26.383,0 0,-9.109 26.91,0 0,9.109 26.383,0 0,-9.109 26.91,0 0,9.109 26.383,0 0,-9.109 26.91,0 0,9.109 31.222,0 0,43.519 z"
         style="fill:none;stroke:#ff0000;stroke-width:0.0708661;stroke-linecap:butt;stroke-linejoin:miter;stroke-miterlimit:4;stroke-opacity:1;stroke-dasharray:none"
         id="path3119"
         inkscape:connector-curvature="0" /></g><g
       id="g3875"
       transform="translate(-383.53472,-19.233304)"><path
         d="m 946.03318,631.30117 c 0,-1.434 -1.89,-2.594 -4.222,-2.594 l -48.25,0 c -2.332,0 -4.223,1.16 -4.223,2.594 l 0,14.656 c 0,1.434 1.891,2.594 4.223,2.594 l 48.25,0 c 2.332,0 4.222,-1.16 4.222,-2.594 l 0,-14.656 z"
         style="fill:none;stroke:#ff0000;stroke-width:0.0708661;stroke-linecap:butt;stroke-linejoin:miter;stroke-miterlimit:4;stroke-opacity:1;stroke-dasharray:none"
         id="path3123"
         inkscape:connector-curvature="0" /><path
         d="m 1144.0492,546.32017 -26.383,0 0,9.114 26.383,0 0,-9.114 z m -213.17202,0 -26.383,0 0,9.114 26.383,0 0,-9.114 z m -213.172,0 -26.512,0 0,9.114 26.512,0 0,-9.114 z m 466.27702,25.844 -8.32,0 -0.133,26.383 8.324,0 c 0.395,0 0.711,0.285 0.79,0.66 l 0,25.59 c -0.079,0.375 -0.395,0.66 -0.79,0.66 l -8.324,0 0,26.383 8.324,0 c 0.395,0 0.711,0.285 0.79,0.66 l 0,25.59 c -0.079,0.375 -0.395,0.66 -0.79,0.66 l -8.324,0 0,26.383 -515.81602,0 0,-26.383 -8.324,0 c -0.395,0 -0.711,-0.285 -0.789,-0.66 l 0,-25.59 c 0.078,-0.371 0.394,-0.66 0.789,-0.66 l 8.324,0 0,-26.383 -8.324,0 c -0.395,0 -0.711,-0.285 -0.789,-0.66 l 0,-25.59 c 0.078,-0.375 0.394,-0.66 0.789,-0.66 l 8.324,0 0,-26.383 -8.324,0 c -0.395,0 -0.711,-0.426 -0.789,-0.98 l 0,-38.055 c 0.078,-0.555 0.394,-0.981 0.789,-0.981 l 93.226,0 0,23.286 26.383,0 0,-9.114 26.91,0 0,9.114 26.383,0 0,-9.114 26.91,0 0,9.114 26.383,0 0,-23.286 80.203,0 0,23.286 26.383,0 0,-9.114 26.91002,0 0,9.114 26.383,0 0,-9.114 26.91,0 0,9.114 26.383,0 0,-23.286 93.226,0 c 0.399,0 0.711,0.426 0.789,0.981 l 0,38.055 c -0.078,0.554 -0.39,0.98 -0.789,0.98 z"
         style="fill:none;stroke:#ff0000;stroke-width:0.0708661;stroke-linecap:butt;stroke-linejoin:miter;stroke-miterlimit:4;stroke-opacity:1;stroke-dasharray:none"
         id="path3125"
         inkscape:connector-curvature="0" /></g><path
       style="fill:none;stroke:#ff0000;stroke-width:0.0708661;stroke-linecap:butt;stroke-linejoin:miter;stroke-miterlimit:4;stroke-opacity:1;stroke-dasharray:none"
       d="m 9.4701728,527.76156 0,8.324 c 0,0.395 0.285,0.711 0.6600002,0.789 l 25.59,0 c 0.375,-0.078 0.66,-0.394 0.66,-0.789 l 0,-8.324 26.383004,0 0,8.324 c 0,0.395 0.285,0.711 0.66,0.789 l 25.59,0 c 0.375,-0.078 0.66,-0.394 0.66,-0.789 l 0,-8.324 26.382993,0 0,8.324 c 0,0.395 0.285,0.711 0.66,0.789 l 25.59,0 c 0.375,-0.078 0.66,-0.394 0.66,-0.789 l 0,-8.324 39.672,0 0,-43.785 -23.469,0 0,-26.379 9.297,0 0,-26.914 -9.297,0 0,-26.379 9.297,0 0,-26.914 -9.297,0 0,-26.379 23.469,0 0,-43.789 -39.676,0 0,-8.32 c 0,-0.395 -0.285,-0.715 -0.656,-0.789 l -25.594,0 c -0.371,0.074 -0.656,0.394 -0.656,0.789 l 0,8.32 -26.386993,0 0,-8.32 c 0,-0.395 -0.281,-0.715 -0.656,-0.789 l -25.594,0 c -0.371,0.074 -0.656,0.394 -0.656,0.789 l 0,8.32 -26.387004,0 0,-8.32 c 0,-0.395 -0.281,-0.715 -0.656,-0.789 l -25.594,0 c -0.3710002,0.074 -0.6560002,0.394 -0.6560002,0.789 l 0,228.859 z"
       id="path3127"
       inkscape:connector-curvature="0" /><g
       id="g3220"
       transform="translate(-8.1510877,-152.54178)"><path
         d="m 143.895,285.094 c 7.761,0 14.05,-5.371 14.05,-12 l 0,-28.965 c 0,-6.625 -6.289,-12 -14.05,-12 l -8.434,0 c -7.758,0 -14.051,5.375 -14.051,12 l 0,28.965 c 0,6.629 6.289,12 14.051,12 l 8.434,0 z"
         style="fill:none;stroke:#ff0000;stroke-width:0.0708661;stroke-linecap:butt;stroke-linejoin:miter;stroke-miterlimit:4;stroke-opacity:1;stroke-dasharray:none"
         id="path3129"
         inkscape:connector-curvature="0" /><path
         d="m 143.895,390.442 c 7.761,0 14.05,-5.371 14.05,-12 l 0,-28.965 c 0,-6.629 -6.289,-12 -14.05,-12 l -8.434,0 c -7.758,0 -14.051,5.371 -14.051,12 l 0,28.965 c 0,6.629 6.289,12 14.051,12 l 8.434,0 z"
         style="fill:none;stroke:#ff0000;stroke-width:0.0708661;stroke-linecap:butt;stroke-linejoin:miter;stroke-miterlimit:4;stroke-opacity:1;stroke-dasharray:none"
         id="path3131"
         inkscape:connector-curvature="0" /><path
         d="m 19.359,201.016 0.004,-8.32 c 0,-0.399 0.285,-0.715 0.657,-0.789 l 25.593,0 c 0.371,0.074 0.657,0.39 0.657,0.789 l 0,8.32 26.386,0 0,-8.32 c 0,-0.399 0.285,-0.715 0.656,-0.789 l 25.594,0 c 0.371,0.074 0.656,0.39 0.656,0.789 l 0,8.32 26.387,0 0,-8.32 c 0,-0.399 0.281,-0.715 0.656,-0.789 l 25.594,0 c 0.371,0.074 0.656,0.39 0.656,0.789 l 0,8.32 39.676,0 0,43.785 -23.472,0 0,26.383 9.296,0 0,26.91 -9.296,0 0,26.383 9.296,0 0,26.91 -9.296,0 0,26.383 23.472,0 0,43.785 -39.679,0 0,8.324 c 0,0.395 -0.282,0.711 -0.657,0.789 l -25.593,0 c -0.372,-0.078 -0.657,-0.394 -0.657,-0.789 l 0,-8.324 -26.383,0 0,8.324 c 0,0.395 -0.285,0.711 -0.66,0.789 l -25.59,0 c -0.374,-0.078 -0.66,-0.394 -0.66,-0.789 l 0,-8.324 -26.382,0 0,8.324 c 0,0.395 -0.286,0.711 -0.661,0.789 l -25.589,0 c -0.375,-0.078 -0.661,-0.394 -0.661,-0.789 l 0,-228.863 z"
         style="fill:none;stroke:#ff0000;stroke-width:0.0708661;stroke-linecap:butt;stroke-linejoin:miter;stroke-miterlimit:4;stroke-opacity:1;stroke-dasharray:none"
         id="path3133"
         inkscape:connector-curvature="0" /></g><g
       id="g3826"
       transform="translate(96,0)"><path
         d="m 237.352,171.735 26.382,0 0,-9.11 -26.382,0 0,9.11 z m 213.171,0 26.383,0 0,-9.11 -26.383,0 0,9.11 z m 213.172,0 26.516,0 0,-9.11 -26.516,0 0,9.11 z m -466.277,-25.844 8.32,0 0.133,-26.383 -8.324,0 c -0.395,0 -0.711,-0.285 -0.789,-0.66 l 0,-25.59 c 0.078,-0.375 0.394,-0.66 0.789,-0.66 l 8.324,0 0,-26.383 -8.324,0 c -0.395,0 -0.711,-0.285 -0.789,-0.66 l 0,-25.59 c 0.078,-0.375 0.394,-0.66 0.789,-0.66 l 8.324,0 0,-26.383 515.82,0 0,26.383 8.321,0 c 0.394,0 0.715,0.285 0.789,0.66 l 0,25.59 c -0.074,0.371 -0.395,0.66 -0.789,0.66 l -8.321,0 0,26.383 8.321,0 c 0.394,0 0.715,0.285 0.789,0.66 l 0,25.59 c -0.074,0.371 -0.395,0.66 -0.789,0.66 l -8.321,0 0,26.383 8.321,0 c 0.394,0 0.715,0.426 0.789,0.98 l 0,38.051 c -0.074,0.559 -0.395,0.985 -0.789,0.985 l -93.227,0 0,-23.286 -26.383,0 0,9.114 -26.91,0 0,-9.114 -26.383,0 0,9.114 -26.91,0 0,-9.114 -26.383,0 0,23.286 -80.203,0 0,-23.286 -26.383,0 0,9.114 -26.91,0 0,-9.114 -26.382,0 0,9.114 -26.911,0 0,-9.114 -26.382,0 0,23.286 -93.227,0 c -0.395,0 -0.711,-0.426 -0.789,-0.981 l 0,-38.055 c 0.078,-0.554 0.391,-0.98 0.789,-0.98 z"
         style="fill:none;stroke:#ff0000;stroke-width:0.0708661;stroke-linecap:butt;stroke-linejoin:miter;stroke-miterlimit:4;stroke-opacity:1;stroke-dasharray:none"
         id="path3121"
         inkscape:connector-curvature="0" /><g
         id="g3157"><g
           transform="matrix(-1,0,0,1,1165.527,841.89093)"
           id="g3135"><path
             inkscape:connector-curvature="0"
             id="path3137"
             style="fill:none;stroke:#0000ff;stroke-width:0.0708661;stroke-linecap:butt;stroke-linejoin:miter;stroke-miterlimit:4;stroke-opacity:1;stroke-dasharray:none"
             d="m 512.781,-784.84 2.563,0 0,18.953 -2.563,0 0,-18.953 z m 19.27,10.375 0,8.578 -2.328,0 0,-8.5 c 0,-1.351 -0.266,-2.363 -0.797,-3.031 -0.524,-0.664 -1.309,-1 -2.36,-1 -1.261,0 -2.257,0.402 -2.984,1.203 -0.73,0.805 -1.094,1.903 -1.094,3.297 l 0,8.031 -2.343,0 0,-14.218 2.343,0 0,2.203 c 0.563,-0.852 1.223,-1.489 1.985,-1.907 0.757,-0.425 1.632,-0.64 2.625,-0.64 1.625,0 2.851,0.508 3.687,1.515 0.844,1.012 1.266,2.5 1.266,4.469 z m 13.797,1.297 c 0,-1.687 -0.352,-2.992 -1.047,-3.922 -0.699,-0.937 -1.68,-1.406 -2.938,-1.406 -1.261,0 -2.242,0.469 -2.937,1.406 -0.699,0.93 -1.047,2.235 -1.047,3.922 0,1.688 0.348,3 1.047,3.938 0.695,0.929 1.676,1.39 2.937,1.39 1.258,0 2.239,-0.461 2.938,-1.39 0.695,-0.938 1.047,-2.25 1.047,-3.938 z m 2.328,5.516 c 0,2.414 -0.539,4.211 -1.61,5.39 -1.074,1.188 -2.718,1.782 -4.937,1.782 -0.824,0 -1.602,-0.063 -2.328,-0.188 -0.731,-0.117 -1.434,-0.305 -2.11,-0.562 l 0,-2.266 c 0.676,0.375 1.348,0.648 2.016,0.828 0.676,0.176 1.359,0.266 2.047,0.266 1.531,0 2.676,-0.403 3.437,-1.203 0.77,-0.805 1.157,-2.012 1.157,-3.625 l 0,-1.157 c -0.493,0.836 -1.11,1.461 -1.86,1.875 -0.75,0.418 -1.652,0.625 -2.703,0.625 -1.742,0 -3.148,-0.66 -4.219,-1.984 -1.062,-1.332 -1.593,-3.098 -1.593,-5.297 0,-2.195 0.531,-3.957 1.593,-5.281 1.071,-1.332 2.477,-2 4.219,-2 1.051,0 1.953,0.211 2.703,0.625 0.75,0.418 1.367,1.043 1.86,1.875 l 0,-2.156 2.328,0 0,12.453 z m 16.719,-5.922 0,1.14 -10.735,0 c 0.102,1.606 0.586,2.829 1.453,3.672 0.864,0.844 2.071,1.266 3.625,1.266 0.895,0 1.766,-0.109 2.61,-0.328 0.843,-0.219 1.675,-0.551 2.5,-1 l 0,2.219 c -0.836,0.355 -1.696,0.625 -2.578,0.812 -0.875,0.188 -1.766,0.281 -2.672,0.281 -2.274,0 -4.071,-0.66 -5.391,-1.984 -1.324,-1.32 -1.984,-3.109 -1.984,-5.359 0,-2.333 0.625,-4.18 1.875,-5.547 1.257,-1.364 2.957,-2.047 5.093,-2.047 1.914,0 3.426,0.617 4.532,1.844 1.113,1.23 1.672,2.906 1.672,5.031 z m -2.329,-0.688 c -0.023,-1.281 -0.382,-2.3 -1.078,-3.062 -0.699,-0.758 -1.621,-1.141 -2.765,-1.141 -1.313,0 -2.36,0.371 -3.141,1.11 -0.781,0.73 -1.23,1.765 -1.344,3.109 l 8.328,-0.016 z m 15.282,1.094 c 0,-1.687 -0.352,-2.992 -1.047,-3.922 -0.699,-0.937 -1.68,-1.406 -2.938,-1.406 -1.261,0 -2.242,0.469 -2.937,1.406 -0.699,0.93 -1.047,2.235 -1.047,3.922 0,1.688 0.348,3 1.047,3.938 0.695,0.929 1.676,1.39 2.937,1.39 1.258,0 2.239,-0.461 2.938,-1.39 0.695,-0.938 1.047,-2.25 1.047,-3.938 z m 2.328,5.516 c 0,2.414 -0.539,4.211 -1.61,5.39 -1.074,1.188 -2.718,1.782 -4.937,1.782 -0.824,0 -1.602,-0.063 -2.328,-0.188 -0.731,-0.117 -1.434,-0.305 -2.11,-0.562 l 0,-2.266 c 0.676,0.375 1.348,0.648 2.016,0.828 0.676,0.176 1.359,0.266 2.047,0.266 1.531,0 2.676,-0.403 3.437,-1.203 0.77,-0.805 1.157,-2.012 1.157,-3.625 l 0,-1.157 c -0.493,0.836 -1.11,1.461 -1.86,1.875 -0.75,0.418 -1.652,0.625 -2.703,0.625 -1.742,0 -3.148,-0.66 -4.219,-1.984 -1.062,-1.332 -1.593,-3.098 -1.593,-5.297 0,-2.195 0.531,-3.957 1.593,-5.281 1.071,-1.332 2.477,-2 4.219,-2 1.051,0 1.953,0.211 2.703,0.625 0.75,0.418 1.367,1.043 1.86,1.875 l 0,-2.156 2.328,0 0,12.453 z m 16.375,-6.813 0,8.578 -2.328,0 0,-8.5 c 0,-1.351 -0.266,-2.363 -0.797,-3.031 -0.524,-0.664 -1.309,-1 -2.36,-1 -1.261,0 -2.257,0.402 -2.984,1.203 -0.73,0.805 -1.094,1.903 -1.094,3.297 l 0,8.031 -2.343,0 0,-14.218 2.343,0 0,2.203 c 0.563,-0.852 1.223,-1.489 1.985,-1.907 0.757,-0.425 1.632,-0.64 2.625,-0.64 1.625,0 2.851,0.508 3.687,1.515 0.844,1.012 1.266,2.5 1.266,4.469 z m 9.937,-4 c -1.25,0 -2.242,0.492 -2.968,1.469 -0.731,0.969 -1.094,2.308 -1.094,4.016 0,1.699 0.359,3.039 1.078,4.015 0.726,0.981 1.723,1.469 2.984,1.469 1.25,0 2.239,-0.488 2.969,-1.469 0.727,-0.988 1.094,-2.328 1.094,-4.015 0,-1.688 -0.367,-3.02 -1.094,-4 -0.73,-0.989 -1.719,-1.485 -2.969,-1.485 z m 0,-1.984 c 2.032,0 3.625,0.664 4.782,1.984 1.164,1.324 1.75,3.153 1.75,5.485 0,2.324 -0.586,4.152 -1.75,5.484 -1.157,1.324 -2.75,1.984 -4.782,1.984 -2.031,0 -3.625,-0.66 -4.781,-1.984 -1.156,-1.332 -1.734,-3.16 -1.734,-5.484 0,-2.332 0.578,-4.161 1.734,-5.485 1.156,-1.32 2.75,-1.984 4.781,-1.984 z m 10.028,11.344 2.672,0 0,3.218 -2.672,0 0,-3.218 z m 18.027,-3.875 c 0,-1.719 -0.355,-3.067 -1.063,-4.047 -0.71,-0.977 -1.679,-1.469 -2.906,-1.469 -1.242,0 -2.215,0.492 -2.922,1.469 -0.711,0.98 -1.062,2.328 -1.062,4.047 0,1.718 0.351,3.07 1.062,4.046 0.707,0.969 1.68,1.454 2.922,1.454 1.227,0 2.196,-0.485 2.906,-1.454 0.708,-0.976 1.063,-2.328 1.063,-4.046 z m -7.953,-4.969 c 0.5,-0.844 1.117,-1.469 1.859,-1.875 0.75,-0.414 1.645,-0.625 2.688,-0.625 1.726,0 3.129,0.687 4.203,2.062 1.082,1.367 1.625,3.168 1.625,5.407 0,2.23 -0.543,4.031 -1.625,5.406 -1.074,1.375 -2.477,2.062 -4.203,2.062 -1.043,0 -1.938,-0.203 -2.688,-0.609 -0.742,-0.414 -1.359,-1.051 -1.859,-1.906 l 0,2.14 -2.344,0 0,-19.75 2.344,0 0,7.688 z m 26.156,4.375 0,1.14 -10.734,0 c 0.101,1.606 0.586,2.829 1.453,3.672 0.863,0.844 2.07,1.266 3.625,1.266 0.894,0 1.765,-0.109 2.609,-0.328 0.844,-0.219 1.676,-0.551 2.5,-1 l 0,2.219 c -0.836,0.355 -1.695,0.625 -2.578,0.812 -0.875,0.188 -1.766,0.281 -2.672,0.281 -2.273,0 -4.07,-0.66 -5.39,-1.984 -1.325,-1.32 -1.985,-3.109 -1.985,-5.359 0,-2.333 0.625,-4.18 1.875,-5.547 1.258,-1.364 2.957,-2.047 5.094,-2.047 1.914,0 3.426,0.617 4.531,1.844 1.114,1.23 1.672,2.906 1.672,5.031 z m -2.328,-0.688 c -0.023,-1.281 -0.383,-2.3 -1.078,-3.062 -0.699,-0.758 -1.621,-1.141 -2.766,-1.141 -1.312,0 -2.359,0.371 -3.14,1.11 -0.782,0.73 -1.231,1.765 -1.344,3.109 l 8.328,-0.016 z" /></g></g></g><path
       style="fill:none;stroke:#ff0000;stroke-width:0.07086615;stroke-linecap:butt;stroke-linejoin:miter;stroke-miterlimit:4;stroke-opacity:1;stroke-dasharray:none"
       d="m 516.94538,605.60056 34.01568,0 0,-8.50394 -34.01568,0 0,8.50394"
       id="path3879"
       inkscape:path-effect="#path-effect3881"
       inkscape:original-d="m 516.94538,605.60056 c 34.01568,0 34.01568,0 34.01568,0 l 0,-8.50394 -34.01568,0 z"
       inkscape:connector-curvature="0" /><path
       style="fill:none;stroke:#ff0000;stroke-width:0.08858268;stroke-linecap:butt;stroke-linejoin:miter;stroke-opacity:1;stroke-miterlimit:4;stroke-dasharray:none"
       d="m 1275.5906,485.43451 42.5196,0 0,14.17323 42.5197,0 0,42.51969 -127.559,0 0,-42.51969 42.5197,0 0,-14.17323"
       id="path4663"
       inkscape:path-effect="#path-effect4665"
       inkscape:original-d="m 1275.5906,485.43451 42.5196,0 0,14.17323 42.5197,0 0,42.51969 -127.559,0 0,-42.51969 42.5197,0 z"
       inkscape:connector-curvature="0"
       transform="matrix(0.8,0,0,-0.8,0,841.89096)" /></g></svg>