<?xml version="1.0" encoding="UTF-8" standalone="no"?>
<!-- Created with Inkscape (http://www.inkscape.org/) -->

<svg
   xmlns:dc="http://purl.org/dc/elements/1.1/"
   xmlns:cc="http://creativecommons.org/ns#"
   xmlns:rdf="http://www.w3.org/1999/02/22-rdf-syntax-ns#"
   xmlns:svg="http://www.w3.org/2000/svg"
   xmlns="http://www.w3.org/2000/svg"
   xmlns:sodipodi="http://sodipodi.sourceforge.net/DTD/sodipodi-0.dtd"
   xmlns:inkscape="http://www.inkscape.org/namespaces/inkscape"
   id="svg2"
   version="1.1"
   inkscape:version="0.48.4 r9939"
   width="1665.35"
   height="1052.3637"
   xml:space="preserve"
   sodipodi:docname="box_for_breadboard_deksel_plexi_v03.svg"><metadata
     id="metadata8"><rdf:RDF><cc:Work
         rdf:about=""><dc:format>image/svg+xml</dc:format><dc:type
           rdf:resource="http://purl.org/dc/dcmitype/StillImage" /><dc:title></dc:title></cc:Work></rdf:RDF></metadata><defs
     id="defs6"><clipPath
       clipPathUnits="userSpaceOnUse"
       id="clipPath16"><path
         d="m 0,841.891 1332.28,0 L 1332.28,0 0,0 0,841.891 z"
         id="path18" /></clipPath><clipPath
       clipPathUnits="userSpaceOnUse"
       id="clipPath216"><path
         d="m 0,841.891 1332.28,0 L 1332.28,0 0,0 0,841.891 z"
         id="path218" /></clipPath></defs><sodipodi:namedview
     pagecolor="#ffffff"
     bordercolor="#666666"
     borderopacity="1"
     objecttolerance="10"
     gridtolerance="10"
     guidetolerance="10"
     inkscape:pageopacity="0"
     inkscape:pageshadow="2"
     inkscape:window-width="1600"
     inkscape:window-height="880"
     id="namedview4"
     showgrid="true"
     inkscape:zoom="1"
     inkscape:cx="1070.2714"
     inkscape:cy="927.85406"
     inkscape:window-x="-2"
     inkscape:window-y="-3"
     inkscape:window-maximized="1"
     inkscape:current-layer="g10"><inkscape:grid
       type="xygrid"
       id="grid3404"
       empspacing="10"
       visible="true"
       enabled="false"
       snapvisiblegridlinesonly="true"
       units="mm"
       spacingx="1mm"
       spacingy="1mm" /><inkscape:grid
       type="xygrid"
       id="grid3669"
       empspacing="10"
       visible="true"
       enabled="true"
       snapvisiblegridlinesonly="true"
       units="mm"
       spacingx="1mm"
       spacingy="1mm" /></sodipodi:namedview><g
     id="g10"
     inkscape:groupmode="layer"
     inkscape:label="box_for_breadboard"
     transform="matrix(1.25,0,0,-1.25,0,1052.3638)"><g
       id="g96"
       transform="translate(778.749,815.3379)"
       style="fill:none;stroke:#ff0000;stroke-opacity:1;stroke-width:0.07086614;stroke-miterlimit:4;stroke-dasharray:none"><path
         d="m 0,0 533.921,0 0,-238.893 -533.919,0 L 0,0 z"
         style="fill:none;stroke:#ff0000;stroke-width:0.07086614;stroke-linecap:butt;stroke-linejoin:miter;stroke-miterlimit:4;stroke-opacity:1;stroke-dasharray:none"
         id="path98"
         inkscape:connector-curvature="0" /></g><path
       sodipodi:type="arc"
       style="fill:none;stroke:#ff0000;stroke-width:0.35185025;stroke-miterlimit:4;stroke-opacity:1;stroke-dasharray:none;stroke-dashoffset:0"
       id="path3435-4"
       sodipodi:cx="1576.7716"
       sodipodi:cy="290.55261"
       sodipodi:rx="17.716536"
       sodipodi:ry="17.716536"
       d="m 1576.4269,272.83943 c 9.7827,-0.19037 17.8675,7.58577 18.0579,17.36849 0.1904,9.78272 -7.5858,17.86751 -17.3685,18.05787 -9.7827,0.19037 -17.8675,-7.58577 -18.0579,-17.36849 -0.1901,-9.76989 7.5661,-17.84897 17.3357,-18.0572"
       transform="matrix(0.20140996,0,0,-0.20140996,946.79359,694.63991)"
       sodipodi:start="4.6929319"
       sodipodi:end="10.974263"
       sodipodi:open="true" /><path
       sodipodi:type="arc"
       style="fill:none;stroke:#ff0000;stroke-width:0.35185025;stroke-miterlimit:4;stroke-opacity:1;stroke-dasharray:none;stroke-dashoffset:0"
       id="path3435-9-0"
       sodipodi:cx="1576.7716"
       sodipodi:cy="290.55261"
       sodipodi:rx="17.716536"
       sodipodi:ry="17.716536"
       d="m 1576.4269,272.83943 c 9.7827,-0.19037 17.8675,7.58577 18.0579,17.36849 0.1904,9.78272 -7.5858,17.86751 -17.3685,18.05787 -9.7827,0.19037 -17.8675,-7.58577 -18.0579,-17.36849 -0.1901,-9.76989 7.5661,-17.84897 17.3357,-18.0572"
       transform="matrix(0.20140996,0,0,-0.20140996,953.82567,686.24111)"
       sodipodi:start="4.6929319"
       sodipodi:end="10.974263"
       sodipodi:open="true" /><path
       sodipodi:type="arc"
       style="fill:none;stroke:#ff0000;stroke-width:0.35185025;stroke-miterlimit:4;stroke-opacity:1;stroke-dasharray:none;stroke-dashoffset:0"
       id="path3435-3-0"
       sodipodi:cx="1576.7716"
       sodipodi:cy="290.55261"
       sodipodi:rx="17.716536"
       sodipodi:ry="17.716536"
       d="m 1576.4269,272.83943 c 9.7827,-0.19037 17.8675,7.58577 18.0579,17.36849 0.1904,9.78272 -7.5858,17.86751 -17.3685,18.05787 -9.7827,0.19037 -17.8675,-7.58577 -18.0579,-17.36849 -0.1901,-9.76989 7.5661,-17.84897 17.3357,-18.0572"
       transform="matrix(-0.20140996,0,0,-0.20140996,1462.6418,694.04826)"
       sodipodi:start="4.6929319"
       sodipodi:end="10.974263"
       sodipodi:open="true" /><path
       sodipodi:type="arc"
       style="fill:none;stroke:#ff0000;stroke-width:0.35185025;stroke-miterlimit:4;stroke-opacity:1;stroke-dasharray:none;stroke-dashoffset:0"
       id="path3435-9-4-7"
       sodipodi:cx="1576.7716"
       sodipodi:cy="290.55261"
       sodipodi:rx="17.716536"
       sodipodi:ry="17.716536"
       d="m 1576.4269,272.83943 c 9.7827,-0.19037 17.8675,7.58577 18.0579,17.36849 0.1904,9.78272 -7.5858,17.86751 -17.3685,18.05787 -9.7827,0.19037 -17.8675,-7.58577 -18.0579,-17.36849 -0.1901,-9.76989 7.5661,-17.84897 17.3357,-18.0572"
       transform="matrix(-0.20140996,0,0,-0.20140996,1455.6097,685.64945)"
       sodipodi:start="4.6929319"
       sodipodi:end="10.974263"
       sodipodi:open="true" /><path
       sodipodi:type="arc"
       style="fill:none;stroke:#ff0000;stroke-width:0.35185025;stroke-miterlimit:4;stroke-opacity:1;stroke-dasharray:none;stroke-dashoffset:0"
       id="path3435-2-6"
       sodipodi:cx="1576.7716"
       sodipodi:cy="290.55261"
       sodipodi:rx="17.716536"
       sodipodi:ry="17.716536"
       d="m 1576.4269,272.83943 c 9.7827,-0.19037 17.8675,7.58577 18.0579,17.36849 0.1904,9.78272 -7.5858,17.86751 -17.3685,18.05787 -9.7827,0.19037 -17.8675,-7.58577 -18.0579,-17.36849 -0.1901,-9.76989 7.5661,-17.84897 17.3357,-18.0572"
       transform="matrix(-0.20140996,0,0,-0.20140996,1589.2193,819.64088)"
       sodipodi:start="4.6929319"
       sodipodi:end="10.974263"
       sodipodi:open="true" /><path
       sodipodi:type="arc"
       style="fill:none;stroke:#ff0000;stroke-width:0.35185025;stroke-miterlimit:4;stroke-opacity:1;stroke-dasharray:none;stroke-dashoffset:0"
       id="path3435-9-3-9"
       sodipodi:cx="1576.7716"
       sodipodi:cy="290.55261"
       sodipodi:rx="17.716536"
       sodipodi:ry="17.716536"
       d="m 1576.4269,272.83943 c 9.7827,-0.19037 17.8675,7.58577 18.0579,17.36849 0.1904,9.78272 -7.5858,17.86751 -17.3685,18.05787 -9.7827,0.19037 -17.8675,-7.58577 -18.0579,-17.36849 -0.1901,-9.76989 7.5661,-17.84897 17.3357,-18.0572"
       transform="matrix(-0.20140996,0,0,-0.20140996,1582.1872,811.24208)"
       sodipodi:start="4.6929319"
       sodipodi:end="10.974263"
       sodipodi:open="true" /><path
       sodipodi:type="arc"
       style="fill:none;stroke:#ff0000;stroke-width:0.35185025;stroke-miterlimit:4;stroke-opacity:1;stroke-dasharray:none;stroke-dashoffset:0"
       id="path3435-7-0"
       sodipodi:cx="1576.7716"
       sodipodi:cy="290.55261"
       sodipodi:rx="17.716536"
       sodipodi:ry="17.716536"
       d="m 1576.4269,272.83943 c 9.7827,-0.19037 17.8675,7.58577 18.0579,17.36849 0.1904,9.78272 -7.5858,17.86751 -17.3685,18.05787 -9.7827,0.19037 -17.8675,-7.58577 -18.0579,-17.36849 -0.1901,-9.76989 7.5661,-17.84897 17.3357,-18.0572"
       transform="matrix(0.20140996,0,0,-0.20140996,820.22419,819.74431)"
       sodipodi:start="4.6929319"
       sodipodi:end="10.974263"
       sodipodi:open="true" /><path
       sodipodi:type="arc"
       style="fill:none;stroke:#ff0000;stroke-width:0.35185025;stroke-miterlimit:4;stroke-opacity:1;stroke-dasharray:none;stroke-dashoffset:0"
       id="path3435-9-9-2"
       sodipodi:cx="1576.7716"
       sodipodi:cy="290.55261"
       sodipodi:rx="17.716536"
       sodipodi:ry="17.716536"
       d="m 1576.4269,272.83943 c 9.7827,-0.19037 17.8675,7.58577 18.0579,17.36849 0.1904,9.78272 -7.5858,17.86751 -17.3685,18.05787 -9.7827,0.19037 -17.8675,-7.58577 -18.0579,-17.36849 -0.1901,-9.76989 7.5661,-17.84897 17.3357,-18.0572"
       transform="matrix(0.20140996,0,0,-0.20140996,827.25627,811.3455)"
       sodipodi:start="4.6929319"
       sodipodi:end="10.974263"
       sodipodi:open="true" /><path
       sodipodi:type="arc"
       style="fill:none;stroke:#ff0000;stroke-width:0.35185025;stroke-miterlimit:4;stroke-opacity:1;stroke-dasharray:none;stroke-dashoffset:0"
       id="path3435-5"
       sodipodi:cx="1576.7716"
       sodipodi:cy="290.55261"
       sodipodi:rx="17.716536"
       sodipodi:ry="17.716536"
       d="m 1576.4269,272.83943 c 9.7827,-0.19037 17.8675,7.58577 18.0579,17.36849 0.1904,9.78272 -7.5858,17.86751 -17.3685,18.05787 -9.7827,0.19037 -17.8675,-7.58577 -18.0579,-17.36849 -0.1901,-9.76989 7.5661,-17.84897 17.3357,-18.0572"
       transform="matrix(0.20140996,0,0,-0.20140996,946.79359,694.63991)"
       sodipodi:start="4.6929319"
       sodipodi:end="10.974263"
       sodipodi:open="true" /><path
       sodipodi:type="arc"
       style="fill:none;stroke:#ff0000;stroke-width:0.35185025;stroke-miterlimit:4;stroke-opacity:1;stroke-dasharray:none;stroke-dashoffset:0"
       id="path3435-3-3"
       sodipodi:cx="1576.7716"
       sodipodi:cy="290.55261"
       sodipodi:rx="17.716536"
       sodipodi:ry="17.716536"
       d="m 1576.4269,272.83943 c 9.7827,-0.19037 17.8675,7.58577 18.0579,17.36849 0.1904,9.78272 -7.5858,17.86751 -17.3685,18.05787 -9.7827,0.19037 -17.8675,-7.58577 -18.0579,-17.36849 -0.1901,-9.76989 7.5661,-17.84897 17.3357,-18.0572"
       transform="matrix(-0.20140996,0,0,-0.20140996,1462.6418,694.04826)"
       sodipodi:start="4.6929319"
       sodipodi:end="10.974263"
       sodipodi:open="true" /><path
       sodipodi:type="arc"
       style="fill:none;stroke:#ff0000;stroke-width:0.35185025;stroke-miterlimit:4;stroke-opacity:1;stroke-dasharray:none;stroke-dashoffset:0"
       id="path3435-9-4-9"
       sodipodi:cx="1576.7716"
       sodipodi:cy="290.55261"
       sodipodi:rx="17.716536"
       sodipodi:ry="17.716536"
       d="m 1576.4269,272.83943 c 9.7827,-0.19037 17.8675,7.58577 18.0579,17.36849 0.1904,9.78272 -7.5858,17.86751 -17.3685,18.05787 -9.7827,0.19037 -17.8675,-7.58577 -18.0579,-17.36849 -0.1901,-9.76989 7.5661,-17.84897 17.3357,-18.0572"
       transform="matrix(-0.20140996,0,0,-0.20140996,1455.6097,685.64945)"
       sodipodi:start="4.6929319"
       sodipodi:end="10.974263"
       sodipodi:open="true" /><path
       sodipodi:type="arc"
       style="fill:none;stroke:#ff0000;stroke-width:0.35185025;stroke-miterlimit:4;stroke-opacity:1;stroke-dasharray:none;stroke-dashoffset:0"
       id="path3435-2-0"
       sodipodi:cx="1576.7716"
       sodipodi:cy="290.55261"
       sodipodi:rx="17.716536"
       sodipodi:ry="17.716536"
       d="m 1576.4269,272.83943 c 9.7827,-0.19037 17.8675,7.58577 18.0579,17.36849 0.1904,9.78272 -7.5858,17.86751 -17.3685,18.05787 -9.7827,0.19037 -17.8675,-7.58577 -18.0579,-17.36849 -0.1901,-9.76989 7.5661,-17.84897 17.3357,-18.0572"
       transform="matrix(-0.20140996,0,0,-0.20140996,1589.2193,819.64088)"
       sodipodi:start="4.6929319"
       sodipodi:end="10.974263"
       sodipodi:open="true" /><path
       sodipodi:type="arc"
       style="fill:none;stroke:#ff0000;stroke-width:0.35185025;stroke-miterlimit:4;stroke-opacity:1;stroke-dasharray:none;stroke-dashoffset:0"
       id="path3435-9-3-0"
       sodipodi:cx="1576.7716"
       sodipodi:cy="290.55261"
       sodipodi:rx="17.716536"
       sodipodi:ry="17.716536"
       d="m 1576.4269,272.83943 c 9.7827,-0.19037 17.8675,7.58577 18.0579,17.36849 0.1904,9.78272 -7.5858,17.86751 -17.3685,18.05787 -9.7827,0.19037 -17.8675,-7.58577 -18.0579,-17.36849 -0.1901,-9.76989 7.5661,-17.84897 17.3357,-18.0572"
       transform="matrix(-0.20140996,0,0,-0.20140996,1582.1872,811.24208)"
       sodipodi:start="4.6929319"
       sodipodi:end="10.974263"
       sodipodi:open="true" /><path
       sodipodi:type="arc"
       style="fill:none;stroke:#ff0000;stroke-width:0.35185025;stroke-miterlimit:4;stroke-opacity:1;stroke-dasharray:none;stroke-dashoffset:0"
       id="path3435-9-9-1"
       sodipodi:cx="1576.7716"
       sodipodi:cy="290.55261"
       sodipodi:rx="17.716536"
       sodipodi:ry="17.716536"
       d="m 1576.4269,272.83943 c 9.7827,-0.19037 17.8675,7.58577 18.0579,17.36849 0.1904,9.78272 -7.5858,17.86751 -17.3685,18.05787 -9.7827,0.19037 -17.8675,-7.58577 -18.0579,-17.36849 -0.1901,-9.76989 7.5661,-17.84897 17.3357,-18.0572"
       transform="matrix(0.20140996,0,0,-0.20140996,827.25627,811.3455)"
       sodipodi:start="4.6929319"
       sodipodi:end="10.974263"
       sodipodi:open="true" /><path
       sodipodi:type="arc"
       style="fill:none;stroke:#ff0000;stroke-width:0.35185025;stroke-miterlimit:4;stroke-opacity:1;stroke-dasharray:none;stroke-dashoffset:0"
       id="path3435-9-9-5-8"
       sodipodi:cx="1576.7716"
       sodipodi:cy="290.55261"
       sodipodi:rx="17.716536"
       sodipodi:ry="17.716536"
       d="m 1576.4269,272.83943 c 9.7827,-0.19037 17.8675,7.58577 18.0579,17.36849 0.1904,9.78272 -7.5858,17.86751 -17.3685,18.05787 -9.7827,0.19037 -17.8675,-7.58577 -18.0579,-17.36849 -0.1901,-9.76989 7.5661,-17.84897 17.3357,-18.0572"
       transform="matrix(0.20140996,0,0,-0.20140996,887.6084,752.25079)"
       sodipodi:start="4.6929319"
       sodipodi:end="10.974263"
       sodipodi:open="true" /><path
       sodipodi:type="arc"
       style="fill:none;stroke:#ff0000;stroke-width:0.18585543;stroke-miterlimit:4;stroke-opacity:1;stroke-dasharray:none;stroke-dashoffset:0"
       id="path3435-9-9-5-8-5"
       sodipodi:cx="1576.7716"
       sodipodi:cy="290.55261"
       sodipodi:rx="17.716536"
       sodipodi:ry="17.716536"
       d="m 1576.4269,272.83943 c 9.7827,-0.19037 17.8675,7.58577 18.0579,17.36849 0.1904,9.78272 -7.5858,17.86751 -17.3685,18.05787 -9.7827,0.19037 -17.8675,-7.58577 -18.0579,-17.36849 -0.1901,-9.76989 7.5661,-17.84897 17.3357,-18.0572"
       transform="matrix(0.38129713,0,0,-0.38129713,692.20678,801.31748)"
       sodipodi:start="4.6929319"
       sodipodi:end="10.974263"
       sodipodi:open="true" /><path
       sodipodi:type="arc"
       style="fill:none;stroke:#ff0000;stroke-width:0.09952396;stroke-miterlimit:4;stroke-opacity:1;stroke-dasharray:none;stroke-dashoffset:0"
       id="path3435-9-9-1-4-3"
       sodipodi:cx="1576.7716"
       sodipodi:cy="290.55261"
       sodipodi:rx="17.716536"
       sodipodi:ry="17.716536"
       d="m 1576.4269,272.83943 a 17.716536,17.716536 0 1 1 -0.033,6.7e-4"
       transform="matrix(1.5073129,0,0,-0.33637126,-1471.8882,779.78721)"
       sodipodi:start="4.6929319"
       sodipodi:end="10.974263"
       sodipodi:open="true" /><path
       sodipodi:type="arc"
       style="fill:none;stroke:#ff0000;stroke-width:0.09952396;stroke-miterlimit:4;stroke-opacity:1;stroke-dasharray:none;stroke-dashoffset:0"
       id="path3435-9-9-1-4-3-4"
       sodipodi:cx="1576.7716"
       sodipodi:cy="290.55261"
       sodipodi:rx="17.716536"
       sodipodi:ry="17.716536"
       d="m 1576.4269,272.83943 a 17.716536,17.716536 0 1 1 -0.033,6.7e-4"
       transform="matrix(1.5073129,0,0,-0.33637126,-1471.8882,806.53367)"
       sodipodi:start="4.6929319"
       sodipodi:end="10.974263"
       sodipodi:open="true" /></g></svg>